# xmcd CD database file
#
# Track frame offsets:
#	150
#	14723
#	29589
#	43497
#	53244
#	67778
#	80928
#	94417
#	107444
#	120336
#	134605
#	148826
#	156825
#	167483
#	179029
#	193978
#
# Disc length: 2790 seconds
#
# Revision: 0
# Processed by: cddbd v1.5.2PL0 Copyright (c) Steve Scherf et al.
# Submitted via: CDex 1.70beta2
#
DISCID=f30ae410
DTITLE=Nat King Cole - The Love Songs
DYEAR=2003
DGENRE=Jazz
TTITLE0=Unforgettable
TTITLE1=Mona Lisa
TTITLE2=What'll I Do
TTITLE3=My Funny Valentine
TTITLE4=Too Young
TTITLE5=I Love You For Sentimental Reasons
TTITLE6=Lost April
TTITLE7=Honey Rush
TTITLE8=You're Nobody Till Somebody Loves You
TTITLE9=Sweet Lorraine
TTITLE10=A Portrait of Jennie
TTITLE11=Just You, Just Me
TTITLE12=There Will Never Be Another You
TTITLE13=Honeysuckle Rose
TTITLE14=Red Sails In The Sunset
TTITLE15=Embraceable You
EXTD=YEAR: 2003
EXTT0=
EXTT1=
EXTT2=
EXTT3=
EXTT4=
EXTT5=
EXTT6=
EXTT7=
EXTT8=
EXTT9=
EXTT10=
EXTT11=
EXTT12=
EXTT13=
EXTT14=
EXTT15=
PLAYORDER=
